<svg width="33" height="33" viewBox="0 0 33 33" fill="none" xmlns="http://www.w3.org/2000/svg">
<g clip-path="url(#clip0_585_1909)">
<path d="M16.5898 32.0605C12.3464 32.0605 8.27672 30.3748 5.27614 27.3743C2.27555 24.3737 0.589844 20.304 0.589844 16.0605C0.589844 11.8171 2.27555 7.74742 5.27614 4.74684C8.27672 1.74626 12.3464 0.0605469 16.5898 0.0605469C20.8333 0.0605469 24.903 1.74626 27.9036 4.74684C30.9041 7.74742 32.5898 11.8171 32.5898 16.0605C32.5898 20.304 30.9041 24.3737 27.9036 27.3743C24.903 30.3748 20.8333 32.0605 16.5898 32.0605ZM22.6518 8.06055C20.3286 8.06068 18.1006 8.9837 16.4578 10.6265L15.9978 11.0845C15.6858 11.3985 15.3818 11.7245 15.0938 12.0645H11.8898C11.5906 12.0646 11.2964 12.1413 11.0352 12.2873C10.7741 12.4332 10.5546 12.6437 10.3978 12.8985L8.68584 15.6745C8.62626 15.7724 8.58977 15.8826 8.57915 15.9967C8.56852 16.1108 8.58404 16.2258 8.62453 16.333C8.66502 16.4402 8.72941 16.5368 8.81281 16.6154C8.89621 16.694 8.99643 16.7525 9.10584 16.7865L12.2098 17.7405L14.9098 20.4405L15.8658 23.5465C15.899 23.6564 15.9569 23.7571 16.0352 23.841C16.1135 23.9249 16.21 23.9896 16.3173 24.0302C16.4246 24.0708 16.5398 24.0862 16.654 24.0752C16.7682 24.0641 16.8783 24.027 16.9758 23.9665L19.7538 22.2565C20.0083 22.0995 20.2184 21.88 20.364 21.6188C20.5096 21.3577 20.586 21.0636 20.5858 20.7645V17.5545C20.9258 17.2665 21.2518 16.9645 21.5658 16.6505L22.0258 16.1905C23.6677 14.5481 24.5899 12.3209 24.5898 9.99855V9.81255C24.5898 9.34789 24.4053 8.90226 24.0767 8.5737C23.7481 8.24513 23.3025 8.06055 22.8378 8.06055H22.6518ZM12.4378 22.3485C12.5928 21.9991 12.6171 21.606 12.5099 21.239C12.4027 20.872 12.169 20.5548 11.8503 20.3437C11.5316 20.1325 11.1484 20.0411 10.7686 20.0856C10.3889 20.13 10.0372 20.3075 9.77584 20.5865C8.98584 21.3745 8.64784 23.1025 8.53584 23.8265C8.52878 23.8655 8.53147 23.9057 8.54368 23.9433C8.5559 23.981 8.57725 24.0151 8.60584 24.0425C8.63327 24.0711 8.66735 24.0925 8.70504 24.1047C8.74273 24.1169 8.78286 24.1196 8.82184 24.1125C9.54584 24.0005 11.2738 23.6625 12.0618 22.8745C12.2215 22.7265 12.3495 22.5476 12.4378 22.3485Z" fill="white"/>
</g>
<defs>
<clipPath id="clip0_585_1909">
<rect width="32" height="32" fill="white" transform="translate(0.589844 0.0605469)"/>
</clipPath>
</defs>
</svg>
