<svg width="24" height="24" viewBox="0 0 24 24" fill="none" xmlns="http://www.w3.org/2000/svg">
<g clip-path="url(#clip0_114_3880)">
<path d="M9 10C9 9.44771 9.44772 9 10 9H12C12.5523 9 13 9.44771 13 10V15H15C15.5523 15 16 15.4477 16 16C16 16.5523 15.5523 17 15 17H9C8.44771 17 8 16.5523 8 16C8 15.4477 8.44771 15 9 15H11V11H10C9.44772 11 9 10.5523 9 10Z" fill="#003F70"/>
<path d="M11.5 8C12.3284 8 13 7.32843 13 6.5C13 5.67157 12.3284 5 11.5 5C10.6716 5 10 5.67157 10 6.5C10 7.32843 10.6716 8 11.5 8Z" fill="#003F70"/>
<path fill-rule="evenodd" clip-rule="evenodd" d="M0 12C0 5.37258 5.37258 0 12 0C18.6274 0 24 5.37258 24 12C24 18.6274 18.6274 24 12 24C5.37258 24 0 18.6274 0 12ZM12 2C6.47715 2 2 6.47715 2 12C2 17.5228 6.47715 22 12 22C17.5228 22 22 17.5228 22 12C22 6.47715 17.5228 2 12 2Z" fill="#003F70"/>
</g>
<defs>
<clipPath id="clip0_114_3880">
<rect width="24" height="24" fill="white"/>
</clipPath>
</defs>
</svg>
