<svg width="30" height="30" viewBox="0 0 30 30" fill="none" xmlns="http://www.w3.org/2000/svg">
<path d="M2.8125 8.67188C2.8125 8.025 3.3375 7.5 3.98438 7.5H26.0156C26.3264 7.5 26.6245 7.62347 26.8443 7.84323C27.064 8.063 27.1875 8.36107 27.1875 8.67188C27.1875 8.98268 27.064 9.28075 26.8443 9.50052C26.6245 9.72028 26.3264 9.84375 26.0156 9.84375H3.98438C3.3375 9.84375 2.8125 9.31875 2.8125 8.67188ZM6.5625 15.2344C6.5625 14.5875 7.0875 14.0625 7.73438 14.0625H22.2656C22.5764 14.0625 22.8745 14.186 23.0943 14.4057C23.314 14.6255 23.4375 14.9236 23.4375 15.2344C23.4375 15.5452 23.314 15.8432 23.0943 16.063C22.8745 16.2828 22.5764 16.4062 22.2656 16.4062H7.73438C7.0875 16.4062 6.5625 15.8813 6.5625 15.2344ZM11.4844 20.625C11.1736 20.625 10.8755 20.7485 10.6557 20.9682C10.436 21.188 10.3125 21.4861 10.3125 21.7969C10.3125 22.1077 10.436 22.4057 10.6557 22.6255C10.8755 22.8453 11.1736 22.9688 11.4844 22.9688H18.5156C18.8264 22.9688 19.1245 22.8453 19.3443 22.6255C19.564 22.4057 19.6875 22.1077 19.6875 21.7969C19.6875 21.4861 19.564 21.188 19.3443 20.9682C19.1245 20.7485 18.8264 20.625 18.5156 20.625H11.4844Z" fill="#2F2F2F"/>
</svg>
