<svg width="22" height="24" viewBox="0 0 22 24" fill="none" xmlns="http://www.w3.org/2000/svg">
<path fill-rule="evenodd" clip-rule="evenodd" d="M15.8396 13.076C15.8396 15.8375 13.601 18.076 10.8396 18.076C8.0782 18.076 5.83962 15.8375 5.83962 13.076C5.83962 10.3146 8.0782 8.07605 10.8396 8.07605C13.601 8.07605 15.8396 10.3146 15.8396 13.076ZM13.8396 13.076C13.8396 14.7329 12.4965 16.076 10.8396 16.076C9.18277 16.076 7.83962 14.7329 7.83962 13.076C7.83962 11.4192 9.18277 10.076 10.8396 10.076C12.4965 10.076 13.8396 11.4192 13.8396 13.076Z" fill="#6C7278"/>
<path fill-rule="evenodd" clip-rule="evenodd" d="M12.4746 1.44609C11.4804 0.799869 10.1989 0.79987 9.20466 1.4461L1.36512 6.5418C0.385896 7.17829 -0.134932 8.32522 0.0302349 9.48139L1.60437 20.5003C1.8155 21.9783 3.08126 23.0761 4.57421 23.0761H17.105C18.598 23.0761 19.8637 21.9783 20.0749 20.5003L21.649 9.48139C21.8142 8.32522 21.2934 7.17829 20.3141 6.5418L12.4746 1.44609ZM10.2946 3.12298C10.626 2.90757 11.0532 2.90757 11.3846 3.12298L19.2242 8.21868C19.5506 8.43085 19.7242 8.81316 19.6691 9.19855L18.095 20.2175C18.0246 20.7101 17.6027 21.0761 17.105 21.0761H4.57421C4.07656 21.0761 3.65464 20.7101 3.58427 20.2175L2.01013 9.19855C1.95508 8.81316 2.12869 8.43085 2.4551 8.21868L10.2946 3.12298Z" fill="#6C7278"/>
</svg>
