<svg width="20" height="20" viewBox="0 0 20 20" fill="none" xmlns="http://www.w3.org/2000/svg">
<path fill-rule="evenodd" clip-rule="evenodd" d="M8 6C4.68629 6 2 8.68629 2 12C2 15.3137 4.68629 18 8 18C11.3137 18 14 15.3137 14 12C14 8.68629 11.3137 6 8 6ZM0 12C0 7.58172 3.58172 4 8 4C12.4183 4 16 7.58172 16 12C16 16.4183 12.4183 20 8 20C3.58172 20 0 16.4183 0 12Z" fill="#003F70"/>
<path fill-rule="evenodd" clip-rule="evenodd" d="M19 3.0598e-07C19.5523 3.30122e-07 20 0.447716 20 1V8C20 8.55228 19.5523 9 19 9C18.4477 9 18 8.55228 18 8V2L12 2C11.4477 2 11 1.55228 11 1C11 0.447715 11.4477 -2.41402e-08 12 0L19 3.0598e-07Z" fill="#003F70"/>
<path fill-rule="evenodd" clip-rule="evenodd" d="M12.2929 7.70711C11.9024 7.31658 11.9024 6.68342 12.2929 6.29289L18.2929 0.292893C18.6834 -0.0976312 19.3166 -0.0976309 19.7071 0.292893C20.0976 0.683418 20.0976 1.31658 19.7071 1.70711L13.7071 7.70711C13.3166 8.09763 12.6834 8.09763 12.2929 7.70711Z" fill="#003F70"/>
</svg>
