<svg width="17" height="8" viewBox="0 0 17 8" fill="none" xmlns="http://www.w3.org/2000/svg">
<path d="M10.1668 1.45664L4.34579 7.30039C4.24464 7.39857 4.10945 7.45346 3.96875 7.45346C3.82805 7.45346 3.69285 7.39857 3.59171 7.30039L0.6812 4.37851C0.596815 4.27529 0.553691 4.14425 0.560216 4.01088C0.566741 3.87751 0.622448 3.75134 0.716502 3.65692C0.810557 3.5625 0.936233 3.50658 1.06909 3.50003C1.20194 3.49347 1.33247 3.53677 1.43529 3.62148L3.96875 6.17148L9.41272 0.699608C9.51553 0.614893 9.64606 0.5716 9.77892 0.57815C9.91177 0.584701 10.0374 0.640626 10.1315 0.735047C10.2256 0.829469 10.2813 0.955636 10.2878 1.08901C10.2943 1.22238 10.2512 1.35342 10.1668 1.45664ZM16.2524 0.699608C16.1521 0.599849 16.0166 0.543884 15.8754 0.543884C15.7341 0.543884 15.5986 0.599849 15.4983 0.699608L10.0543 6.17148L8.88353 4.99609C8.78287 4.90453 8.65099 4.85533 8.51519 4.85869C8.37939 4.86204 8.25008 4.91769 8.15402 5.01412C8.05797 5.11055 8.00253 5.24037 7.99919 5.3767C7.99585 5.51303 8.04485 5.64543 8.13606 5.74648L9.67731 7.30039C9.77846 7.39857 9.91365 7.45346 10.0543 7.45346C10.1951 7.45346 10.3302 7.39857 10.4314 7.30039L16.2524 1.45664C16.3518 1.35592 16.4075 1.21989 16.4075 1.07812C16.4075 0.93636 16.3518 0.800329 16.2524 0.699608Z" fill="url(#paint0_linear_1047_2289)"/>
<defs>
<linearGradient id="paint0_linear_1047_2289" x1="0.55957" y1="7.45346" x2="16.4794" y2="7.28371" gradientUnits="userSpaceOnUse">
<stop offset="0.382913" stop-color="#FD484F"/>
<stop offset="1" stop-color="#EE2A7B"/>
</linearGradient>
</defs>
</svg>
