<svg width="20" height="20" viewBox="0 0 20 20" fill="none" xmlns="http://www.w3.org/2000/svg">
<path fill-rule="evenodd" clip-rule="evenodd" d="M7.35641 1.63602C7.35641 1.51877 7.33332 1.40267 7.28844 1.29434C7.24357 1.18601 7.17781 1.08759 7.0949 1.00468C7.01199 0.921766 6.91356 0.855999 6.80523 0.811129C6.69691 0.766258 6.5808 0.743164 6.46355 0.743164C6.3463 0.743164 6.2302 0.766258 6.12187 0.811129C6.01354 0.855999 5.91512 0.921766 5.83221 1.00468C5.7493 1.08759 5.68353 1.18601 5.63866 1.29434C5.59379 1.40267 5.5707 1.51877 5.5707 1.63602V3.86888C5.5707 3.98613 5.59379 4.10223 5.63866 4.21056C5.68353 4.31889 5.7493 4.41731 5.83221 4.50022C5.91512 4.58313 6.01354 4.6489 6.12187 4.69377C6.2302 4.73864 6.3463 4.76174 6.46355 4.76174C6.5808 4.76174 6.69691 4.73864 6.80523 4.69377C6.91356 4.6489 7.01199 4.58313 7.0949 4.50022C7.17781 4.41731 7.24357 4.31889 7.28844 4.21056C7.33332 4.10223 7.35641 3.98613 7.35641 3.86888V1.63602ZM3.20355 2.40459C3.69784 2.40459 4.09641 2.80459 4.09641 3.29745V5.53031C4.09641 5.76711 4.00234 5.99421 3.8349 6.16165C3.66745 6.3291 3.44035 6.42316 3.20355 6.42316C2.96675 6.42316 2.73965 6.3291 2.57221 6.16165C2.40476 5.99421 2.3107 5.76711 2.3107 5.53031V3.29745C2.3107 2.80459 2.7107 2.40459 3.20355 2.40459ZM9.72212 2.40459C10.215 2.40459 10.615 2.80459 10.615 3.29745V5.53031C10.615 5.76711 10.5209 5.99421 10.3535 6.16165C10.186 6.3291 9.95893 6.42316 9.72212 6.42316C9.48532 6.42316 9.25822 6.3291 9.09078 6.16165C8.92334 5.99421 8.82927 5.76711 8.82927 5.53031V3.29745C8.82927 2.80459 9.22927 2.40459 9.72212 2.40459ZM17.805 4.58459C17.4684 4.58432 17.1369 4.66576 16.8388 4.82192C16.5407 4.97808 16.2849 5.20429 16.0935 5.4811C15.9022 5.75792 15.7809 6.07707 15.74 6.41112C15.6992 6.74517 15.7402 7.08413 15.8593 7.39888L14.3207 8.81888C13.4493 8.43602 12.395 8.49745 11.4464 8.96602C11.0917 9.17475 10.7709 9.43632 10.495 9.74174C9.28641 11.0689 9.20784 12.8132 9.99641 13.836C10.0778 13.9403 10.1678 14.0403 10.2693 14.1317C10.3387 14.1949 10.395 14.271 10.435 14.3559C10.4749 14.4408 10.4978 14.5327 10.5022 14.6265C10.5067 14.7202 10.4926 14.8139 10.4608 14.9022C10.4291 14.9904 10.3803 15.0716 10.3171 15.141C10.254 15.2104 10.1778 15.2667 10.0929 15.3067C10.008 15.3467 9.91611 15.3695 9.82239 15.374C9.72867 15.3784 9.63499 15.3644 9.54671 15.3326C9.45842 15.3008 9.37725 15.252 9.30784 15.1889C9.147 15.042 8.99929 14.8814 8.86641 14.7089C7.56355 13.0232 7.8707 10.5032 9.43784 8.78031L9.47784 8.73745C6.51641 7.85888 2.65927 8.90031 0.95641 12.2974C-0.355019 14.9174 0.142124 17.0617 0.59641 18.156C0.910695 18.916 1.65784 19.2574 2.33927 19.2574H17.0578C17.6262 19.2574 18.1712 19.0317 18.5731 18.6298C18.9749 18.228 19.2007 17.6829 19.2007 17.1146V16.6903C19.2007 15.7246 19.0421 14.8117 18.5393 13.9903C18.1564 13.3632 17.6007 12.8346 16.8536 12.3803C16.6208 13.1528 16.2176 13.8631 15.6736 14.4589C15.5461 14.5991 15.3681 14.6829 15.1788 14.6918C14.9895 14.7008 14.8045 14.6342 14.6643 14.5067C14.5241 14.3792 14.4403 14.2013 14.4313 14.012C14.4223 13.8227 14.4889 13.6376 14.6164 13.4974C15.5678 12.4532 15.8178 11.1646 15.5021 10.1589L17.095 8.68602C17.1118 8.67043 17.128 8.65423 17.1436 8.63745C17.429 8.73214 17.7316 8.76376 18.0305 8.73011C18.3294 8.69646 18.6174 8.59835 18.8747 8.44256C19.1319 8.28676 19.3523 8.07699 19.5206 7.82773C19.6889 7.57846 19.8011 7.29564 19.8495 6.99879C19.8979 6.70194 19.8812 6.39813 19.8007 6.10834C19.7202 5.81854 19.5778 5.54967 19.3833 5.32027C19.1888 5.09088 18.9468 4.90643 18.6741 4.77967C18.4013 4.6529 18.1043 4.58683 17.8036 4.58602L17.805 4.58459Z" fill="url(#paint0_linear_580_852)"/>
<defs>
<linearGradient id="paint0_linear_580_852" x1="0.113281" y1="19.2574" x2="19.9679" y2="19.1589" gradientUnits="userSpaceOnUse">
<stop offset="0.382913" stop-color="#FD484F"/>
<stop offset="1" stop-color="#EE2A7B"/>
</linearGradient>
</defs>
</svg>
