<svg width="25" height="24" viewBox="0 0 25 24" fill="none" xmlns="http://www.w3.org/2000/svg">
<path fill-rule="evenodd" clip-rule="evenodd" d="M21.6667 7.15384C21.6667 10.3401 18.9804 12.9231 15.6667 12.9231C12.353 12.9231 9.66669 10.3401 9.66669 7.15384C9.66669 3.96759 12.353 1.38461 15.6667 1.38461C18.9804 1.38461 21.6667 3.96759 21.6667 7.15384ZM19.6667 7.15384C19.6667 9.27802 17.8758 11 15.6667 11C13.4575 11 11.6667 9.27802 11.6667 7.15384C11.6667 5.02967 13.4575 3.30769 15.6667 3.30769C17.8758 3.30769 19.6667 5.02967 19.6667 7.15384Z" fill="#6C7278"/>
<path d="M8.86562 3.38444C9.40687 3.2788 9.75657 2.77127 9.6467 2.25084C9.53683 1.73041 9.009 1.39416 8.46775 1.4998C5.72865 2.03442 3.66669 4.36142 3.66669 7.15364C3.66669 9.94586 5.72865 12.2729 8.46775 12.8075C9.009 12.9131 9.53683 12.5769 9.6467 12.0564C9.75657 11.536 9.40687 11.0285 8.86562 10.9228C7.04025 10.5666 5.66669 9.01326 5.66669 7.15364C5.66669 5.29402 7.04025 3.74072 8.86562 3.38444Z" fill="#6C7278"/>
<path fill-rule="evenodd" clip-rule="evenodd" d="M10.3646 15.3976C11.5974 14.4877 13.3157 13.8846 15.6667 13.8846C18.0177 13.8846 19.736 14.4877 20.9689 15.3976C22.1925 16.3008 22.8582 17.4471 23.2192 18.4121C23.5369 19.2615 23.3143 20.0929 22.7815 20.6822C22.2669 21.2512 21.4878 21.5769 20.6667 21.5769H10.6667C9.84558 21.5769 9.06648 21.2512 8.55189 20.6822C8.01905 20.0929 7.79645 19.2615 8.11422 18.4121C8.47525 17.4471 9.14095 16.3008 10.3646 15.3976ZM11.5824 16.9231C10.7402 17.5447 10.2651 18.3441 9.99616 19.063C9.94003 19.2131 9.97091 19.3205 10.0612 19.4203C10.1697 19.5403 10.3833 19.6538 10.6667 19.6538H20.6667C20.9501 19.6538 21.1637 19.5403 21.2722 19.4203C21.3625 19.3205 21.3934 19.2131 21.3372 19.0631C21.0683 18.3441 20.5932 17.5447 19.7511 16.9231C18.9181 16.3083 17.6457 15.8077 15.6667 15.8077C13.6878 15.8077 12.4153 16.3083 11.5824 16.9231Z" fill="#6C7278"/>
<path d="M3.91761 18.9585C4.12232 18.2006 4.47366 17.4037 5.05349 16.8081C5.60457 16.242 6.4072 15.8077 7.66669 15.8077C8.21897 15.8077 8.66669 15.3772 8.66669 14.8462C8.66669 14.3151 8.21897 13.8846 7.66669 13.8846C5.84602 13.8846 4.51722 14.5449 3.59339 15.4939C2.6983 16.4133 2.23124 17.5517 1.98183 18.4751C1.49863 20.2641 3.08118 21.5769 4.66666 21.5769H5.43588C5.98816 21.5769 6.43588 21.1464 6.43588 20.6154C6.43588 20.0843 5.98816 19.6538 5.43588 19.6538H4.66666C4.38413 19.6538 4.15914 19.5422 4.03122 19.4063C3.91537 19.2832 3.86929 19.1374 3.91761 18.9585Z" fill="#6C7278"/>
</svg>
