<svg width="19" height="16" viewBox="0 0 19 16" fill="none" xmlns="http://www.w3.org/2000/svg">
<path d="M12.244 8.55833C11.4203 7.27321 10.0173 6.50586 8.49094 6.50586C6.96461 6.50586 5.56161 7.27321 4.73797 8.55833L2.75296 11.655C2.42361 12.1687 2.27165 12.7623 2.31341 13.3711C2.35517 13.9801 2.58689 14.5472 2.98342 15.0114C3.38022 15.4753 3.90455 15.7923 4.49969 15.9284C5.09483 16.0644 5.70491 16.0063 6.26388 15.7606L6.30131 15.744C7.7078 15.1381 9.315 15.1437 10.7179 15.7606C11.0797 15.9197 11.4631 16.0002 11.85 16.0002C12.0604 16.0002 12.272 15.9763 12.4816 15.9285C13.0768 15.7926 13.6011 15.4755 13.998 15.0116C14.3947 14.5477 14.6266 13.9805 14.6685 13.3714C14.7104 12.7623 14.5584 12.1688 14.2291 11.6548L12.244 8.55833Z" fill="url(#paint0_linear_580_75)"/>
<path d="M3.28578 8.55423C3.87631 8.32741 4.32494 7.85155 4.54897 7.21423C4.76225 6.60777 4.74479 5.92311 4.49967 5.2862C4.2544 4.64972 3.80829 4.13014 3.24346 3.82301C2.65014 3.50051 1.99829 3.44799 1.40874 3.67524C0.222651 4.13126 -0.321648 5.59697 0.195555 6.94326C0.608703 8.01482 1.5723 8.69125 2.5465 8.69125C2.79526 8.69125 3.04471 8.64711 3.28578 8.55423Z" fill="url(#paint1_linear_580_75)"/>
<path d="M7.13803 6.12808C8.62078 6.12808 9.82712 4.75371 9.82712 3.06439C9.82712 1.37464 8.62078 0 7.13803 0C5.65542 0 4.44922 1.37464 4.44922 3.06439C4.44922 4.75371 5.65542 6.12808 7.13803 6.12808Z" fill="url(#paint2_linear_580_75)"/>
<path d="M11.78 6.88097H11.7801C12.0082 6.95667 12.2409 6.99285 12.4726 6.99285C13.5539 6.99285 14.6077 6.2058 15.0099 4.99624C15.2414 4.29998 15.2262 3.56377 14.967 2.92338C14.6957 2.25296 14.1931 1.76634 13.5514 1.55307C12.9096 1.33979 12.2156 1.42876 11.597 1.80336C11.006 2.1612 10.5532 2.74181 10.3219 3.43807C9.83377 4.90685 10.4879 6.45134 11.78 6.88097Z" fill="url(#paint3_linear_580_75)"/>
<path d="M17.4446 6.52324L17.4442 6.52282C16.4216 5.76748 14.8924 6.09487 14.0349 7.25303C13.1783 8.41174 13.3123 9.96949 14.3333 10.7254C14.7056 11.0012 15.1456 11.1331 15.5959 11.1331C16.3807 11.1331 17.1972 10.7325 17.7431 9.99589C18.5995 8.83718 18.4657 7.27942 17.4446 6.52324Z" fill="url(#paint4_linear_580_75)"/>
<defs>
<linearGradient id="paint0_linear_580_75" x1="2.30664" y1="16.0002" x2="14.7323" y2="15.9249" gradientUnits="userSpaceOnUse">
<stop offset="0.382913" stop-color="#FD484F"/>
<stop offset="1" stop-color="#EE2A7B"/>
</linearGradient>
<linearGradient id="paint1_linear_580_75" x1="-2.87423e-08" y1="8.69125" x2="4.71888" y2="8.67126" gradientUnits="userSpaceOnUse">
<stop offset="0.382913" stop-color="#FD484F"/>
<stop offset="1" stop-color="#EE2A7B"/>
</linearGradient>
<linearGradient id="paint2_linear_580_75" x1="4.44922" y1="6.12808" x2="9.85203" y2="6.10604" gradientUnits="userSpaceOnUse">
<stop offset="0.382913" stop-color="#FD484F"/>
<stop offset="1" stop-color="#EE2A7B"/>
</linearGradient>
<linearGradient id="paint3_linear_580_75" x1="10.1602" y1="6.99284" x2="15.1963" y2="6.97171" gradientUnits="userSpaceOnUse">
<stop offset="0.382913" stop-color="#FD484F"/>
<stop offset="1" stop-color="#EE2A7B"/>
</linearGradient>
<linearGradient id="paint4_linear_580_75" x1="13.4707" y1="11.1331" x2="18.3296" y2="11.1113" gradientUnits="userSpaceOnUse">
<stop offset="0.382913" stop-color="#FD484F"/>
<stop offset="1" stop-color="#EE2A7B"/>
</linearGradient>
</defs>
</svg>
