<svg width="20" height="20" viewBox="0 0 20 20" fill="none" xmlns="http://www.w3.org/2000/svg">
<path fill-rule="evenodd" clip-rule="evenodd" d="M1.54594 1.62833C2.59335 0.161959 4.69876 0.0302418 5.87364 1.45912C5.97715 1.585 6.08212 1.71281 6.18752 1.84115C6.7611 2.53956 7.34758 3.25367 7.78223 3.75892C8.3458 4.41401 8.47262 5.38889 8.00175 6.17369L6.56632 8.56607C6.68406 8.75875 6.84361 8.98867 7.04771 9.25092C7.41168 9.71858 7.87675 10.2377 8.39539 10.7564C9.26879 11.6298 10.2466 12.4545 11.0883 13.0118L13.4886 11.5716C14.2228 11.1311 15.1559 11.2068 15.8095 11.7598L18.1715 13.7585C19.5253 14.904 19.4386 17.0178 17.9955 18.0485C15.7702 19.6381 12.7792 20.0161 10.3288 18.5205C8.63944 17.4895 6.56942 16.034 4.71753 14.1821C3.04256 12.5071 1.81027 10.7723 0.940487 9.31413C-0.551168 6.81337 -0.0303286 3.8351 1.54594 1.62833ZM4.32881 2.72935C4.01971 2.35342 3.4841 2.35584 3.1734 2.79081C1.93706 4.52169 1.67092 6.63451 2.65813 8.28959C3.46145 9.63636 4.59632 11.2324 6.13174 12.7679C7.83609 14.4722 9.76575 15.8338 11.3707 16.8134C13.0244 17.8227 15.1458 17.6262 16.8331 16.4211C17.2151 16.1482 17.2381 15.5885 16.8797 15.2852L14.5176 13.2866L11.596 15.0396C11.2867 15.2252 10.9014 15.2298 10.5877 15.0517C9.43939 14.3996 8.09721 13.2866 6.98117 12.1706C6.41771 11.6071 5.89479 11.0259 5.46939 10.4793C5.05583 9.94792 4.68982 9.39312 4.49302 8.88865C4.38053 8.60031 4.4079 8.27612 4.56714 8.01072L6.28676 5.1447C6.28676 5.1447 6.29179 5.13608 6.29001 5.11839C6.28809 5.09941 6.27982 5.07922 6.26607 5.06324C5.81494 4.53884 5.21015 3.80239 4.63783 3.10548C4.53336 2.97828 4.42998 2.85239 4.32881 2.72935Z" fill="#003F70"/>
</svg>
