<svg width="28" height="27" viewBox="0 0 28 27" fill="none" xmlns="http://www.w3.org/2000/svg">
<path d="M14 0.166626C6.65329 0.166626 0.666626 6.15329 0.666626 13.5C0.666626 20.8466 6.65329 26.8333 14 26.8333C21.3466 26.8333 27.3333 20.8466 27.3333 13.5C27.3333 6.15329 21.3466 0.166626 14 0.166626ZM20.3733 10.4333L12.8133 17.9933C12.6266 18.18 12.3733 18.2866 12.1066 18.2866C11.84 18.2866 11.5866 18.18 11.4 17.9933L7.62663 14.22C7.23996 13.8333 7.23996 13.1933 7.62663 12.8066C8.01329 12.42 8.65329 12.42 9.03996 12.8066L12.1066 15.8733L18.96 9.01996C19.3466 8.63329 19.9866 8.63329 20.3733 9.01996C20.76 9.40663 20.76 10.0333 20.3733 10.4333Z" fill="#EA7E41"/>
</svg>
