<svg width="34" height="34" viewBox="0 0 34 34" fill="none" xmlns="http://www.w3.org/2000/svg">
<path fill-rule="evenodd" clip-rule="evenodd" d="M1.771 17C1.771 8.58926 8.58941 1.77084 17.0002 1.77084C25.4109 1.77084 32.2293 8.58926 32.2293 17C32.2293 25.4108 25.4109 32.2292 17.0002 32.2292C8.58941 32.2292 1.771 25.4108 1.771 17ZM12.549 16.1146L15.6132 19.0683C15.7137 19.1653 15.7941 19.281 15.8498 19.409C15.9055 19.537 15.9355 19.6747 15.938 19.8143C15.9405 19.9539 15.9155 20.0926 15.8644 20.2225C15.8133 20.3524 15.7371 20.471 15.6402 20.5714C15.5432 20.6719 15.4275 20.7523 15.2995 20.808C15.1715 20.8637 15.0338 20.8937 14.8942 20.8962C14.7546 20.8987 14.6159 20.8737 14.486 20.8226C14.3561 20.7715 14.2375 20.6953 14.1371 20.5983L9.18016 15.8185C9.07888 15.7218 8.99778 15.6059 8.94155 15.4776C8.88533 15.3494 8.85509 15.2112 8.85259 15.0712C8.85008 14.9311 8.87536 14.792 8.92697 14.6618C8.97858 14.5316 9.05549 14.4129 9.15325 14.3126L14.1116 9.17859C14.3073 8.97589 14.5756 8.85925 14.8573 8.85434C15.1391 8.84942 15.4113 8.95663 15.614 9.15238C15.8167 9.34814 15.9333 9.61639 15.9382 9.89814C15.9431 10.1799 15.8359 10.4521 15.6402 10.6548L12.4201 13.9896H20.1168H20.148C20.2218 13.9905 20.2955 13.9943 20.369 14.0009C21.1501 14.0606 21.9106 14.2805 22.6031 14.6469C23.2307 14.9827 23.8781 15.4998 24.3668 16.2832C24.857 17.0708 25.1474 18.0682 25.1474 19.3021C25.1474 22.0504 23.973 23.5988 22.6498 24.3964C21.8912 24.848 21.0328 25.1054 20.1508 25.1458H20.1168H18.9835C18.7017 25.1458 18.4315 25.0339 18.2322 24.8346C18.0329 24.6354 17.921 24.3651 17.921 24.0833C17.921 23.8016 18.0329 23.5313 18.2322 23.332C18.4315 23.1328 18.7017 23.0208 18.9835 23.0208H20.1182L20.1962 23.0152C20.6751 22.9712 21.1382 22.8212 21.5519 22.576C22.2121 22.1779 23.021 21.335 23.021 19.3021C23.021 18.411 22.8156 17.8146 22.562 17.4066C22.3255 17.0306 21.9929 16.7244 21.5987 16.5198C21.142 16.28 20.6389 16.1418 20.1239 16.1146H20.1097H12.549Z" fill="white"/>
</svg>
