<svg width="32" height="32" viewBox="0 0 32 32" fill="none" xmlns="http://www.w3.org/2000/svg">
<path fill-rule="evenodd" clip-rule="evenodd" d="M0.771484 16.0602C0.771484 7.64947 7.5899 0.831055 16.0007 0.831055C24.4114 0.831055 31.2298 7.64947 31.2298 16.0602C31.2298 24.471 24.4114 31.2894 16.0007 31.2894C7.5899 31.2894 0.771484 24.471 0.771484 16.0602ZM11.5495 15.1748L14.6137 18.1286C14.7142 18.2255 14.7946 18.3412 14.8503 18.4692C14.906 18.5972 14.936 18.7349 14.9385 18.8745C14.941 19.0141 14.916 19.1528 14.8649 19.2827C14.8138 19.4126 14.7376 19.5312 14.6407 19.6316C14.5437 19.7321 14.428 19.8125 14.3 19.8682C14.172 19.9239 14.0343 19.9539 13.8947 19.9564C13.7551 19.9589 13.6164 19.9339 13.4865 19.8828C13.3566 19.8317 13.238 19.7555 13.1376 19.6586L8.18065 14.8787C8.07937 14.782 7.99827 14.6661 7.94204 14.5378C7.88582 14.4096 7.85558 14.2714 7.85307 14.1314C7.85057 13.9913 7.87585 13.8522 7.92746 13.722C7.97907 13.5918 8.05597 13.4731 8.15373 13.3728L13.1121 8.2388C13.3078 8.0361 13.5761 7.91946 13.8578 7.91455C14.1396 7.90963 14.4117 8.01684 14.6144 8.2126C14.8171 8.40835 14.9338 8.67661 14.9387 8.95836C14.9436 9.24011 14.8364 9.51227 14.6407 9.71497L11.4206 13.0498H19.1173H19.1485C19.2223 13.0507 19.296 13.0545 19.3695 13.0611C20.1506 13.1208 20.9111 13.3407 21.6036 13.7071C22.2311 14.0429 22.8786 14.56 23.3673 15.3434C23.8575 16.1311 24.1479 17.1284 24.1479 18.3623C24.1479 21.1106 22.9735 22.6591 21.6503 23.4566C20.8916 23.9082 20.0333 24.1656 19.1513 24.2061H19.1173H17.984C17.7022 24.2061 17.4319 24.0941 17.2327 23.8949C17.0334 23.6956 16.9215 23.4253 16.9215 23.1436C16.9215 22.8618 17.0334 22.5915 17.2327 22.3923C17.4319 22.193 17.7022 22.0811 17.984 22.0811H19.1187L19.1966 22.0754C19.6756 22.0314 20.1387 21.8814 20.5524 21.6362C21.2126 21.2381 22.0215 20.3952 22.0215 18.3623C22.0215 17.4712 21.8161 16.8748 21.5625 16.4668C21.326 16.0908 20.9934 15.7847 20.5992 15.58C20.1425 15.3403 19.6394 15.2021 19.1244 15.1748H19.1102H11.5495Z" fill="white"/>
</svg>
