<svg width="23" height="22" viewBox="0 0 23 22" fill="none" xmlns="http://www.w3.org/2000/svg">
<path d="M6.78425 9.33325C7.47112 7.38991 9.32453 6 11.5 6C13.6755 6 15.5289 7.38991 16.2158 9.33325C16.3998 9.85396 16.9711 10.1269 17.4918 9.94284C18.0126 9.75879 18.2855 9.18747 18.1014 8.66675C17.141 5.94932 14.5494 4 11.5 4C8.4506 4 5.85905 5.94932 4.89857 8.66675C4.71453 9.18747 4.98745 9.75879 5.50817 9.94284C6.02888 10.1269 6.60021 9.85396 6.78425 9.33325Z" fill="#003F70"/>
<path fill-rule="evenodd" clip-rule="evenodd" d="M3.5 0C1.84315 0 0.5 1.34315 0.5 3V19C0.5 20.6569 1.84315 22 3.5 22H19.5C21.1569 22 22.5 20.6569 22.5 19V3C22.5 1.34315 21.1569 0 19.5 0H3.5ZM2.5 3C2.5 2.44772 2.94772 2 3.5 2H19.5C20.0523 2 20.5 2.44772 20.5 3V15H14.3293C14.0264 14.143 13.3452 13.4648 12.4863 13.1659C12.4953 13.1119 12.5 13.0565 12.5 13V10C12.5 9.44771 12.0523 9 11.5 9C10.9477 9 10.5 9.44771 10.5 10V13C10.5 13.0565 10.5047 13.1119 10.5137 13.1659C9.65483 13.4648 8.9736 14.143 8.6707 15H2.5V3ZM14.3293 17H20.5V19C20.5 19.5523 20.0523 20 19.5 20H3.5C2.94772 20 2.5 19.5523 2.5 19V17H8.67071C9.08254 18.1652 10.1938 19 11.5 19C12.8062 19 13.9175 18.1652 14.3293 17ZM11.5 17C12.0523 17 12.5 16.5523 12.5 16C12.5 15.4477 12.0523 15 11.5 15C10.9477 15 10.5 15.4477 10.5 16C10.5 16.5523 10.9477 17 11.5 17Z" fill="#003F70"/>
</svg>
